<svg xmlns="http://www.w3.org/2000/svg" width="15.9375" height="15.9375" viewBox="0 0 15.9375 15.9375" shape-rendering="crispEdges">
  <rect x="0.9375" y="0.0000" width="0.9375" height="0.9375" fill="#5c3c4c" />
  <rect x="1.8750" y="0.0000" width="0.9375" height="0.9375" fill="#421321" />
  <rect x="2.8125" y="0.0000" width="0.9375" height="0.9375" fill="#421321" />
  <rect x="3.7500" y="0.0000" width="0.9375" height="0.9375" fill="#421321" />
  <rect x="4.6875" y="0.0000" width="0.9375" height="0.9375" fill="#421321" />
  <rect x="5.6250" y="0.0000" width="0.9375" height="0.9375" fill="#421321" />
  <rect x="6.5625" y="0.0000" width="0.9375" height="0.9375" fill="#421321" />
  <rect x="7.5000" y="0.0000" width="0.9375" height="0.9375" fill="#421321" />
  <rect x="8.4375" y="0.0000" width="0.9375" height="0.9375" fill="#421321" />
  <rect x="9.3750" y="0.0000" width="0.9375" height="0.9375" fill="#421321" />
  <rect x="10.3125" y="0.0000" width="0.9375" height="0.9375" fill="#421321" />
  <rect x="11.2500" y="0.0000" width="0.9375" height="0.9375" fill="#421321" />
  <rect x="12.1875" y="0.0000" width="0.9375" height="0.9375" fill="#421321" />
  <rect x="13.1250" y="0.0000" width="0.9375" height="0.9375" fill="#421321" />
  <rect x="14.0625" y="0.0000" width="0.9375" height="0.9375" fill="#5c3c4c" />
  <rect x="0.0000" y="0.9375" width="0.9375" height="0.9375" fill="#4e2534" />
  <rect x="0.9375" y="0.9375" width="0.9375" height="0.9375" fill="#b9999a" />
  <rect x="1.8750" y="0.9375" width="0.9375" height="0.9375" fill="#f3d2cb" />
  <rect x="2.8125" y="0.9375" width="0.9375" height="0.9375" fill="#f3d2cb" />
  <rect x="3.7500" y="0.9375" width="0.9375" height="0.9375" fill="#f3d2cb" />
  <rect x="4.6875" y="0.9375" width="0.9375" height="0.9375" fill="#f3d2cb" />
  <rect x="5.6250" y="0.9375" width="0.9375" height="0.9375" fill="#f3d2cb" />
  <rect x="6.5625" y="0.9375" width="0.9375" height="0.9375" fill="#f3d2cb" />
  <rect x="7.5000" y="0.9375" width="0.9375" height="0.9375" fill="#f3d2cb" />
  <rect x="8.4375" y="0.9375" width="0.9375" height="0.9375" fill="#f3d2cb" />
  <rect x="9.3750" y="0.9375" width="0.9375" height="0.9375" fill="#f3d2cb" />
  <rect x="10.3125" y="0.9375" width="0.9375" height="0.9375" fill="#f3d2cb" />
  <rect x="11.2500" y="0.9375" width="0.9375" height="0.9375" fill="#f3d2cb" />
  <rect x="12.1875" y="0.9375" width="0.9375" height="0.9375" fill="#f3d2cb" />
  <rect x="13.1250" y="0.9375" width="0.9375" height="0.9375" fill="#f3d2cb" />
  <rect x="14.0625" y="0.9375" width="0.9375" height="0.9375" fill="#b9999a" />
  <rect x="15.0000" y="0.9375" width="0.9375" height="0.9375" fill="#4e2534" />
  <rect x="0.0000" y="1.8750" width="0.9375" height="0.9375" fill="#421321" />
  <rect x="0.9375" y="1.8750" width="0.9375" height="0.9375" fill="#f2d0c9" />
  <rect x="1.8750" y="1.8750" width="0.9375" height="0.9375" fill="#e8a89b" />
  <rect x="2.8125" y="1.8750" width="0.9375" height="0.9375" fill="#e8a89b" />
  <rect x="3.7500" y="1.8750" width="0.9375" height="0.9375" fill="#e8a89b" />
  <rect x="4.6875" y="1.8750" width="0.9375" height="0.9375" fill="#e8a89b" />
  <rect x="5.6250" y="1.8750" width="0.9375" height="0.9375" fill="#e8a89b" />
  <rect x="6.5625" y="1.8750" width="0.9375" height="0.9375" fill="#e8a89b" />
  <rect x="7.5000" y="1.8750" width="0.9375" height="0.9375" fill="#e8a89b" />
  <rect x="8.4375" y="1.8750" width="0.9375" height="0.9375" fill="#e8a89b" />
  <rect x="9.3750" y="1.8750" width="0.9375" height="0.9375" fill="#e8a89b" />
  <rect x="10.3125" y="1.8750" width="0.9375" height="0.9375" fill="#e8a89b" />
  <rect x="11.2500" y="1.8750" width="0.9375" height="0.9375" fill="#e8a89b" />
  <rect x="12.1875" y="1.8750" width="0.9375" height="0.9375" fill="#e8a89b" />
  <rect x="13.1250" y="1.8750" width="0.9375" height="0.9375" fill="#e8a89b" />
  <rect x="14.0625" y="1.8750" width="0.9375" height="0.9375" fill="#f2d0c9" />
  <rect x="15.0000" y="1.8750" width="0.9375" height="0.9375" fill="#421321" />
  <rect x="0.0000" y="2.8125" width="0.9375" height="0.9375" fill="#421321" />
  <rect x="0.9375" y="2.8125" width="0.9375" height="0.9375" fill="#f1cdc7" />
  <rect x="1.8750" y="2.8125" width="0.9375" height="0.9375" fill="#e6a598" />
  <rect x="2.8125" y="2.8125" width="0.9375" height="0.9375" fill="#e7a698" />
  <rect x="3.7500" y="2.8125" width="0.9375" height="0.9375" fill="#e7a698" />
  <rect x="4.6875" y="2.8125" width="0.9375" height="0.9375" fill="#e7a598" />
  <rect x="5.6250" y="2.8125" width="0.9375" height="0.9375" fill="#e7a598" />
  <rect x="6.5625" y="2.8125" width="0.9375" height="0.9375" fill="#e6a598" />
  <rect x="7.5000" y="2.8125" width="0.9375" height="0.9375" fill="#e7a698" />
  <rect x="8.4375" y="2.8125" width="0.9375" height="0.9375" fill="#e7a599" />
  <rect x="9.3750" y="2.8125" width="0.9375" height="0.9375" fill="#e7a698" />
  <rect x="10.3125" y="2.8125" width="0.9375" height="0.9375" fill="#e7a598" />
  <rect x="11.2500" y="2.8125" width="0.9375" height="0.9375" fill="#e7a698" />
  <rect x="12.1875" y="2.8125" width="0.9375" height="0.9375" fill="#e7a598" />
  <rect x="13.1250" y="2.8125" width="0.9375" height="0.9375" fill="#e7a598" />
  <rect x="14.0625" y="2.8125" width="0.9375" height="0.9375" fill="#f1cdc7" />
  <rect x="15.0000" y="2.8125" width="0.9375" height="0.9375" fill="#421321" />
  <rect x="0.0000" y="3.7500" width="0.9375" height="0.9375" fill="#421321" />
  <rect x="0.9375" y="3.7500" width="0.9375" height="0.9375" fill="#efcac3" />
  <rect x="1.8750" y="3.7500" width="0.9375" height="0.9375" fill="#e5a194" />
  <rect x="2.8125" y="3.7500" width="0.9375" height="0.9375" fill="#a4756e" />
  <rect x="3.7500" y="3.7500" width="0.9375" height="0.9375" fill="#525565" />
  <rect x="4.6875" y="3.7500" width="0.9375" height="0.9375" fill="#525565" />
  <rect x="5.6250" y="3.7500" width="0.9375" height="0.9375" fill="#525565" />
  <rect x="6.5625" y="3.7500" width="0.9375" height="0.9375" fill="#a4756e" />
  <rect x="7.5000" y="3.7500" width="0.9375" height="0.9375" fill="#e5a194" />
  <rect x="8.4375" y="3.7500" width="0.9375" height="0.9375" fill="#a4756e" />
  <rect x="9.3750" y="3.7500" width="0.9375" height="0.9375" fill="#525565" />
  <rect x="10.3125" y="3.7500" width="0.9375" height="0.9375" fill="#525565" />
  <rect x="11.2500" y="3.7500" width="0.9375" height="0.9375" fill="#525565" />
  <rect x="12.1875" y="3.7500" width="0.9375" height="0.9375" fill="#a4756e" />
  <rect x="13.1250" y="3.7500" width="0.9375" height="0.9375" fill="#e4a194" />
  <rect x="14.0625" y="3.7500" width="0.9375" height="0.9375" fill="#efcac3" />
  <rect x="15.0000" y="3.7500" width="0.9375" height="0.9375" fill="#421321" />
  <rect x="0.0000" y="4.6875" width="0.9375" height="0.9375" fill="#421321" />
  <rect x="0.9375" y="4.6875" width="0.9375" height="0.9375" fill="#eec7c0" />
  <rect x="1.8750" y="4.6875" width="0.9375" height="0.9375" fill="#e39d8f" />
  <rect x="2.8125" y="4.6875" width="0.9375" height="0.9375" fill="#525565" />
  <rect x="3.7500" y="4.6875" width="0.9375" height="0.9375" fill="#fefefe" />
  <rect x="4.6875" y="4.6875" width="0.9375" height="0.9375" fill="#fefefe" />
  <rect x="5.6250" y="4.6875" width="0.9375" height="0.9375" fill="#fefefe" />
  <rect x="6.5625" y="4.6875" width="0.9375" height="0.9375" fill="#525565" />
  <rect x="7.5000" y="4.6875" width="0.9375" height="0.9375" fill="#a2726b" />
  <rect x="8.4375" y="4.6875" width="0.9375" height="0.9375" fill="#525565" />
  <rect x="9.3750" y="4.6875" width="0.9375" height="0.9375" fill="#fefefe" />
  <rect x="10.3125" y="4.6875" width="0.9375" height="0.9375" fill="#fefefe" />
  <rect x="11.2500" y="4.6875" width="0.9375" height="0.9375" fill="#fefefe" />
  <rect x="12.1875" y="4.6875" width="0.9375" height="0.9375" fill="#525565" />
  <rect x="13.1250" y="4.6875" width="0.9375" height="0.9375" fill="#e39c8f" />
  <rect x="14.0625" y="4.6875" width="0.9375" height="0.9375" fill="#eec7c0" />
  <rect x="15.0000" y="4.6875" width="0.9375" height="0.9375" fill="#421321" />
  <rect x="0.0000" y="5.6250" width="0.9375" height="0.9375" fill="#421321" />
  <rect x="0.9375" y="5.6250" width="0.9375" height="0.9375" fill="#ecc3bc" />
  <rect x="1.8750" y="5.6250" width="0.9375" height="0.9375" fill="#e1978a" />
  <rect x="2.8125" y="5.6250" width="0.9375" height="0.9375" fill="#a06f67" />
  <rect x="3.7500" y="5.6250" width="0.9375" height="0.9375" fill="#525565" />
  <rect x="4.6875" y="5.6250" width="0.9375" height="0.9375" fill="#fcfcfc" />
  <rect x="5.6250" y="5.6250" width="0.9375" height="0.9375" fill="#fcfcfc" />
  <rect x="6.5625" y="5.6250" width="0.9375" height="0.9375" fill="#fcfcfc" />
  <rect x="7.5000" y="5.6250" width="0.9375" height="0.9375" fill="#525565" />
  <rect x="8.4375" y="5.6250" width="0.9375" height="0.9375" fill="#fcfcfc" />
  <rect x="9.3750" y="5.6250" width="0.9375" height="0.9375" fill="#fcfcfc" />
  <rect x="10.3125" y="5.6250" width="0.9375" height="0.9375" fill="#fcfcfc" />
  <rect x="11.2500" y="5.6250" width="0.9375" height="0.9375" fill="#525565" />
  <rect x="12.1875" y="5.6250" width="0.9375" height="0.9375" fill="#a16f67" />
  <rect x="13.1250" y="5.6250" width="0.9375" height="0.9375" fill="#e0988a" />
  <rect x="14.0625" y="5.6250" width="0.9375" height="0.9375" fill="#ecc3bc" />
  <rect x="15.0000" y="5.6250" width="0.9375" height="0.9375" fill="#421321" />
  <rect x="0.0000" y="6.5625" width="0.9375" height="0.9375" fill="#421321" />
  <rect x="0.9375" y="6.5625" width="0.9375" height="0.9375" fill="#ecc3bc" />
  <rect x="1.8750" y="6.5625" width="0.9375" height="0.9375" fill="#de9486" />
  <rect x="2.8125" y="6.5625" width="0.9375" height="0.9375" fill="#de9386" />
  <rect x="3.7500" y="6.5625" width="0.9375" height="0.9375" fill="#9f6c65" />
  <rect x="4.6875" y="6.5625" width="0.9375" height="0.9375" fill="#525565" />
  <rect x="5.6250" y="6.5625" width="0.9375" height="0.9375" fill="#f9f9f9" />
  <rect x="6.5625" y="6.5625" width="0.9375" height="0.9375" fill="#f9f9f9" />
  <rect x="7.5000" y="6.5625" width="0.9375" height="0.9375" fill="#f9f9f9" />
  <rect x="8.4375" y="6.5625" width="0.9375" height="0.9375" fill="#f9f9f9" />
  <rect x="9.3750" y="6.5625" width="0.9375" height="0.9375" fill="#f9f9f9" />
  <rect x="10.3125" y="6.5625" width="0.9375" height="0.9375" fill="#525565" />
  <rect x="11.2500" y="6.5625" width="0.9375" height="0.9375" fill="#9f6c65" />
  <rect x="12.1875" y="6.5625" width="0.9375" height="0.9375" fill="#de9486" />
  <rect x="13.1250" y="6.5625" width="0.9375" height="0.9375" fill="#df9386" />
  <rect x="14.0625" y="6.5625" width="0.9375" height="0.9375" fill="#ecc3bc" />
  <rect x="15.0000" y="6.5625" width="0.9375" height="0.9375" fill="#421321" />
  <rect x="0.0000" y="7.5000" width="0.9375" height="0.9375" fill="#421321" />
  <rect x="0.9375" y="7.5000" width="0.9375" height="0.9375" fill="#d8998d" />
  <rect x="1.8750" y="7.5000" width="0.9375" height="0.9375" fill="#b7422b" />
  <rect x="2.8125" y="7.5000" width="0.9375" height="0.9375" fill="#b7422b" />
  <rect x="3.7500" y="7.5000" width="0.9375" height="0.9375" fill="#b7422b" />
  <rect x="4.6875" y="7.5000" width="0.9375" height="0.9375" fill="#84382f" />
  <rect x="5.6250" y="7.5000" width="0.9375" height="0.9375" fill="#525565" />
  <rect x="6.5625" y="7.5000" width="0.9375" height="0.9375" fill="#e8e8e8" />
  <rect x="7.5000" y="7.5000" width="0.9375" height="0.9375" fill="#e8e8e8" />
  <rect x="8.4375" y="7.5000" width="0.9375" height="0.9375" fill="#e8e8e8" />
  <rect x="9.3750" y="7.5000" width="0.9375" height="0.9375" fill="#525565" />
  <rect x="10.3125" y="7.5000" width="0.9375" height="0.9375" fill="#84382f" />
  <rect x="11.2500" y="7.5000" width="0.9375" height="0.9375" fill="#b7422b" />
  <rect x="12.1875" y="7.5000" width="0.9375" height="0.9375" fill="#b7422b" />
  <rect x="13.1250" y="7.5000" width="0.9375" height="0.9375" fill="#b7422b" />
  <rect x="14.0625" y="7.5000" width="0.9375" height="0.9375" fill="#d8998d" />
  <rect x="15.0000" y="7.5000" width="0.9375" height="0.9375" fill="#421321" />
  <rect x="0.0000" y="8.4375" width="0.9375" height="0.9375" fill="#421321" />
  <rect x="0.9375" y="8.4375" width="0.9375" height="0.9375" fill="#d8998d" />
  <rect x="1.8750" y="8.4375" width="0.9375" height="0.9375" fill="#ba4832" />
  <rect x="2.8125" y="8.4375" width="0.9375" height="0.9375" fill="#b94932" />
  <rect x="3.7500" y="8.4375" width="0.9375" height="0.9375" fill="#863c32" />
  <rect x="4.6875" y="8.4375" width="0.9375" height="0.9375" fill="#525565" />
  <rect x="5.6250" y="8.4375" width="0.9375" height="0.9375" fill="#e1e1e1" />
  <rect x="6.5625" y="8.4375" width="0.9375" height="0.9375" fill="#e1e1e1" />
  <rect x="7.5000" y="8.4375" width="0.9375" height="0.9375" fill="#e1e1e1" />
  <rect x="8.4375" y="8.4375" width="0.9375" height="0.9375" fill="#e1e1e1" />
  <rect x="9.3750" y="8.4375" width="0.9375" height="0.9375" fill="#e1e1e1" />
  <rect x="10.3125" y="8.4375" width="0.9375" height="0.9375" fill="#525565" />
  <rect x="11.2500" y="8.4375" width="0.9375" height="0.9375" fill="#863b32" />
  <rect x="12.1875" y="8.4375" width="0.9375" height="0.9375" fill="#ba4832" />
  <rect x="13.1250" y="8.4375" width="0.9375" height="0.9375" fill="#ba4832" />
  <rect x="14.0625" y="8.4375" width="0.9375" height="0.9375" fill="#d8998d" />
  <rect x="15.0000" y="8.4375" width="0.9375" height="0.9375" fill="#421321" />
  <rect x="0.0000" y="9.3750" width="0.9375" height="0.9375" fill="#421321" />
  <rect x="0.9375" y="9.3750" width="0.9375" height="0.9375" fill="#d99c90" />
  <rect x="1.8750" y="9.3750" width="0.9375" height="0.9375" fill="#be523d" />
  <rect x="2.8125" y="9.3750" width="0.9375" height="0.9375" fill="#894138" />
  <rect x="3.7500" y="9.3750" width="0.9375" height="0.9375" fill="#525565" />
  <rect x="4.6875" y="9.3750" width="0.9375" height="0.9375" fill="#dbdbdb" />
  <rect x="5.6250" y="9.3750" width="0.9375" height="0.9375" fill="#dbdbdb" />
  <rect x="6.5625" y="9.3750" width="0.9375" height="0.9375" fill="#dbdbdb" />
  <rect x="7.5000" y="9.3750" width="0.9375" height="0.9375" fill="#525565" />
  <rect x="8.4375" y="9.3750" width="0.9375" height="0.9375" fill="#dbdbdb" />
  <rect x="9.3750" y="9.3750" width="0.9375" height="0.9375" fill="#dbdbdb" />
  <rect x="10.3125" y="9.3750" width="0.9375" height="0.9375" fill="#dbdbdb" />
  <rect x="11.2500" y="9.3750" width="0.9375" height="0.9375" fill="#525565" />
  <rect x="12.1875" y="9.3750" width="0.9375" height="0.9375" fill="#894138" />
  <rect x="13.1250" y="9.3750" width="0.9375" height="0.9375" fill="#be523d" />
  <rect x="14.0625" y="9.3750" width="0.9375" height="0.9375" fill="#d99c90" />
  <rect x="15.0000" y="9.3750" width="0.9375" height="0.9375" fill="#421321" />
  <rect x="0.0000" y="10.3125" width="0.9375" height="0.9375" fill="#421321" />
  <rect x="0.9375" y="10.3125" width="0.9375" height="0.9375" fill="#dca297" />
  <rect x="1.8750" y="10.3125" width="0.9375" height="0.9375" fill="#c35d49" />
  <rect x="2.8125" y="10.3125" width="0.9375" height="0.9375" fill="#525565" />
  <rect x="3.7500" y="10.3125" width="0.9375" height="0.9375" fill="#d6d6d6" />
  <rect x="4.6875" y="10.3125" width="0.9375" height="0.9375" fill="#d6d6d6" />
  <rect x="5.6250" y="10.3125" width="0.9375" height="0.9375" fill="#d6d6d6" />
  <rect x="6.5625" y="10.3125" width="0.9375" height="0.9375" fill="#525565" />
  <rect x="7.5000" y="10.3125" width="0.9375" height="0.9375" fill="#8c483f" />
  <rect x="8.4375" y="10.3125" width="0.9375" height="0.9375" fill="#525565" />
  <rect x="9.3750" y="10.3125" width="0.9375" height="0.9375" fill="#d6d6d6" />
  <rect x="10.3125" y="10.3125" width="0.9375" height="0.9375" fill="#d6d6d6" />
  <rect x="11.2500" y="10.3125" width="0.9375" height="0.9375" fill="#d6d6d6" />
  <rect x="12.1875" y="10.3125" width="0.9375" height="0.9375" fill="#525565" />
  <rect x="13.1250" y="10.3125" width="0.9375" height="0.9375" fill="#c35d49" />
  <rect x="14.0625" y="10.3125" width="0.9375" height="0.9375" fill="#dca297" />
  <rect x="15.0000" y="10.3125" width="0.9375" height="0.9375" fill="#421321" />
  <rect x="0.0000" y="11.2500" width="0.9375" height="0.9375" fill="#421321" />
  <rect x="0.9375" y="11.2500" width="0.9375" height="0.9375" fill="#dfaa9f" />
  <rect x="1.8750" y="11.2500" width="0.9375" height="0.9375" fill="#c86956" />
  <rect x="2.8125" y="11.2500" width="0.9375" height="0.9375" fill="#905047" />
  <rect x="3.7500" y="11.2500" width="0.9375" height="0.9375" fill="#525565" />
  <rect x="4.6875" y="11.2500" width="0.9375" height="0.9375" fill="#525565" />
  <rect x="5.6250" y="11.2500" width="0.9375" height="0.9375" fill="#525565" />
  <rect x="6.5625" y="11.2500" width="0.9375" height="0.9375" fill="#905047" />
  <rect x="7.5000" y="11.2500" width="0.9375" height="0.9375" fill="#c86956" />
  <rect x="8.4375" y="11.2500" width="0.9375" height="0.9375" fill="#905047" />
  <rect x="9.3750" y="11.2500" width="0.9375" height="0.9375" fill="#525565" />
  <rect x="10.3125" y="11.2500" width="0.9375" height="0.9375" fill="#525565" />
  <rect x="11.2500" y="11.2500" width="0.9375" height="0.9375" fill="#525565" />
  <rect x="12.1875" y="11.2500" width="0.9375" height="0.9375" fill="#905047" />
  <rect x="13.1250" y="11.2500" width="0.9375" height="0.9375" fill="#c86957" />
  <rect x="14.0625" y="11.2500" width="0.9375" height="0.9375" fill="#dfaa9f" />
  <rect x="15.0000" y="11.2500" width="0.9375" height="0.9375" fill="#421321" />
  <rect x="0.0000" y="12.1875" width="0.9375" height="0.9375" fill="#421321" />
  <rect x="0.9375" y="12.1875" width="0.9375" height="0.9375" fill="#e3b3aa" />
  <rect x="1.8750" y="12.1875" width="0.9375" height="0.9375" fill="#cd7463" />
  <rect x="2.8125" y="12.1875" width="0.9375" height="0.9375" fill="#cd7463" />
  <rect x="3.7500" y="12.1875" width="0.9375" height="0.9375" fill="#cd7463" />
  <rect x="4.6875" y="12.1875" width="0.9375" height="0.9375" fill="#cd7463" />
  <rect x="5.6250" y="12.1875" width="0.9375" height="0.9375" fill="#cd7463" />
  <rect x="6.5625" y="12.1875" width="0.9375" height="0.9375" fill="#cd7463" />
  <rect x="7.5000" y="12.1875" width="0.9375" height="0.9375" fill="#cd7463" />
  <rect x="8.4375" y="12.1875" width="0.9375" height="0.9375" fill="#cd7463" />
  <rect x="9.3750" y="12.1875" width="0.9375" height="0.9375" fill="#cd7463" />
  <rect x="10.3125" y="12.1875" width="0.9375" height="0.9375" fill="#cd7463" />
  <rect x="11.2500" y="12.1875" width="0.9375" height="0.9375" fill="#cd7464" />
  <rect x="12.1875" y="12.1875" width="0.9375" height="0.9375" fill="#cd7463" />
  <rect x="13.1250" y="12.1875" width="0.9375" height="0.9375" fill="#cd7463" />
  <rect x="14.0625" y="12.1875" width="0.9375" height="0.9375" fill="#e3b3aa" />
  <rect x="15.0000" y="12.1875" width="0.9375" height="0.9375" fill="#421321" />
  <rect x="0.0000" y="13.1250" width="0.9375" height="0.9375" fill="#421321" />
  <rect x="0.9375" y="13.1250" width="0.9375" height="0.9375" fill="#e7bcb4" />
  <rect x="1.8750" y="13.1250" width="0.9375" height="0.9375" fill="#d17e6e" />
  <rect x="2.8125" y="13.1250" width="0.9375" height="0.9375" fill="#d17d6e" />
  <rect x="3.7500" y="13.1250" width="0.9375" height="0.9375" fill="#d27e6e" />
  <rect x="4.6875" y="13.1250" width="0.9375" height="0.9375" fill="#d27d6e" />
  <rect x="5.6250" y="13.1250" width="0.9375" height="0.9375" fill="#d17d6e" />
  <rect x="6.5625" y="13.1250" width="0.9375" height="0.9375" fill="#d17d6e" />
  <rect x="7.5000" y="13.1250" width="0.9375" height="0.9375" fill="#d17d6d" />
  <rect x="8.4375" y="13.1250" width="0.9375" height="0.9375" fill="#d17d6d" />
  <rect x="9.3750" y="13.1250" width="0.9375" height="0.9375" fill="#d27d6e" />
  <rect x="10.3125" y="13.1250" width="0.9375" height="0.9375" fill="#d17d6e" />
  <rect x="11.2500" y="13.1250" width="0.9375" height="0.9375" fill="#d27d6e" />
  <rect x="12.1875" y="13.1250" width="0.9375" height="0.9375" fill="#d17d6e" />
  <rect x="13.1250" y="13.1250" width="0.9375" height="0.9375" fill="#d17d6e" />
  <rect x="14.0625" y="13.1250" width="0.9375" height="0.9375" fill="#e7bcb4" />
  <rect x="15.0000" y="13.1250" width="0.9375" height="0.9375" fill="#421321" />
  <rect x="0.0000" y="14.0625" width="0.9375" height="0.9375" fill="#4f2837" />
  <rect x="0.9375" y="14.0625" width="0.9375" height="0.9375" fill="#bb999a" />
  <rect x="1.8750" y="14.0625" width="0.9375" height="0.9375" fill="#ebc5bf" />
  <rect x="2.8125" y="14.0625" width="0.9375" height="0.9375" fill="#ebc5bf" />
  <rect x="3.7500" y="14.0625" width="0.9375" height="0.9375" fill="#ebc5bf" />
  <rect x="4.6875" y="14.0625" width="0.9375" height="0.9375" fill="#ebc5bf" />
  <rect x="5.6250" y="14.0625" width="0.9375" height="0.9375" fill="#ebc5bf" />
  <rect x="6.5625" y="14.0625" width="0.9375" height="0.9375" fill="#ebc5bf" />
  <rect x="7.5000" y="14.0625" width="0.9375" height="0.9375" fill="#ebc5bf" />
  <rect x="8.4375" y="14.0625" width="0.9375" height="0.9375" fill="#ebc5bf" />
  <rect x="9.3750" y="14.0625" width="0.9375" height="0.9375" fill="#ebc5bf" />
  <rect x="10.3125" y="14.0625" width="0.9375" height="0.9375" fill="#ebc5bf" />
  <rect x="11.2500" y="14.0625" width="0.9375" height="0.9375" fill="#ebc5bf" />
  <rect x="12.1875" y="14.0625" width="0.9375" height="0.9375" fill="#ebc5bf" />
  <rect x="13.1250" y="14.0625" width="0.9375" height="0.9375" fill="#ebc5bf" />
  <rect x="14.0625" y="14.0625" width="0.9375" height="0.9375" fill="#bb999a" />
  <rect x="15.0000" y="14.0625" width="0.9375" height="0.9375" fill="#4f2837" />
  <rect x="0.9375" y="15.0000" width="0.9375" height="0.9375" fill="#4e2534" />
  <rect x="1.8750" y="15.0000" width="0.9375" height="0.9375" fill="#421321" />
  <rect x="2.8125" y="15.0000" width="0.9375" height="0.9375" fill="#421321" />
  <rect x="3.7500" y="15.0000" width="0.9375" height="0.9375" fill="#421321" />
  <rect x="4.6875" y="15.0000" width="0.9375" height="0.9375" fill="#421321" />
  <rect x="5.6250" y="15.0000" width="0.9375" height="0.9375" fill="#421321" />
  <rect x="6.5625" y="15.0000" width="0.9375" height="0.9375" fill="#421321" />
  <rect x="7.5000" y="15.0000" width="0.9375" height="0.9375" fill="#421321" />
  <rect x="8.4375" y="15.0000" width="0.9375" height="0.9375" fill="#421321" />
  <rect x="9.3750" y="15.0000" width="0.9375" height="0.9375" fill="#421321" />
  <rect x="10.3125" y="15.0000" width="0.9375" height="0.9375" fill="#421321" />
  <rect x="11.2500" y="15.0000" width="0.9375" height="0.9375" fill="#421321" />
  <rect x="12.1875" y="15.0000" width="0.9375" height="0.9375" fill="#421321" />
  <rect x="13.1250" y="15.0000" width="0.9375" height="0.9375" fill="#421321" />
  <rect x="14.0625" y="15.0000" width="0.9375" height="0.9375" fill="#4e2534" />
</svg>