<svg xmlns="http://www.w3.org/2000/svg" width="15.9375" height="15.9375" viewBox="0 0 15.9375 15.9375" shape-rendering="crispEdges">
  <rect x="0.9375" y="0.0000" width="0.9375" height="0.9375" fill="#5c3c4c" />
  <rect x="1.8750" y="0.0000" width="0.9375" height="0.9375" fill="#421321" />
  <rect x="2.8125" y="0.0000" width="0.9375" height="0.9375" fill="#421321" />
  <rect x="3.7500" y="0.0000" width="0.9375" height="0.9375" fill="#421321" />
  <rect x="4.6875" y="0.0000" width="0.9375" height="0.9375" fill="#421321" />
  <rect x="5.6250" y="0.0000" width="0.9375" height="0.9375" fill="#421321" />
  <rect x="6.5625" y="0.0000" width="0.9375" height="0.9375" fill="#421321" />
  <rect x="7.5000" y="0.0000" width="0.9375" height="0.9375" fill="#421321" />
  <rect x="8.4375" y="0.0000" width="0.9375" height="0.9375" fill="#421321" />
  <rect x="9.3750" y="0.0000" width="0.9375" height="0.9375" fill="#421321" />
  <rect x="10.3125" y="0.0000" width="0.9375" height="0.9375" fill="#421321" />
  <rect x="11.2500" y="0.0000" width="0.9375" height="0.9375" fill="#421321" />
  <rect x="12.1875" y="0.0000" width="0.9375" height="0.9375" fill="#421321" />
  <rect x="13.1250" y="0.0000" width="0.9375" height="0.9375" fill="#421321" />
  <rect x="14.0625" y="0.0000" width="0.9375" height="0.9375" fill="#5c3c4c" />
  <rect x="0.0000" y="0.9375" width="0.9375" height="0.9375" fill="#4e2534" />
  <rect x="0.9375" y="0.9375" width="0.9375" height="0.9375" fill="#bda1a4" />
  <rect x="1.8750" y="0.9375" width="0.9375" height="0.9375" fill="#fce3df" />
  <rect x="2.8125" y="0.9375" width="0.9375" height="0.9375" fill="#fce3df" />
  <rect x="3.7500" y="0.9375" width="0.9375" height="0.9375" fill="#fce3df" />
  <rect x="4.6875" y="0.9375" width="0.9375" height="0.9375" fill="#fce3df" />
  <rect x="5.6250" y="0.9375" width="0.9375" height="0.9375" fill="#fce3df" />
  <rect x="6.5625" y="0.9375" width="0.9375" height="0.9375" fill="#fce3df" />
  <rect x="7.5000" y="0.9375" width="0.9375" height="0.9375" fill="#fce3df" />
  <rect x="8.4375" y="0.9375" width="0.9375" height="0.9375" fill="#fce3df" />
  <rect x="9.3750" y="0.9375" width="0.9375" height="0.9375" fill="#fce3df" />
  <rect x="10.3125" y="0.9375" width="0.9375" height="0.9375" fill="#fce3df" />
  <rect x="11.2500" y="0.9375" width="0.9375" height="0.9375" fill="#fce3df" />
  <rect x="12.1875" y="0.9375" width="0.9375" height="0.9375" fill="#fce3df" />
  <rect x="13.1250" y="0.9375" width="0.9375" height="0.9375" fill="#fce3df" />
  <rect x="14.0625" y="0.9375" width="0.9375" height="0.9375" fill="#bda1a4" />
  <rect x="15.0000" y="0.9375" width="0.9375" height="0.9375" fill="#4e2534" />
  <rect x="0.0000" y="1.8750" width="0.9375" height="0.9375" fill="#421321" />
  <rect x="0.9375" y="1.8750" width="0.9375" height="0.9375" fill="#fce0dc" />
  <rect x="1.8750" y="1.8750" width="0.9375" height="0.9375" fill="#fbc7be" />
  <rect x="2.8125" y="1.8750" width="0.9375" height="0.9375" fill="#fbc7be" />
  <rect x="3.7500" y="1.8750" width="0.9375" height="0.9375" fill="#fbc7be" />
  <rect x="4.6875" y="1.8750" width="0.9375" height="0.9375" fill="#fbc7be" />
  <rect x="5.6250" y="1.8750" width="0.9375" height="0.9375" fill="#fbc7be" />
  <rect x="6.5625" y="1.8750" width="0.9375" height="0.9375" fill="#fbc7be" />
  <rect x="7.5000" y="1.8750" width="0.9375" height="0.9375" fill="#fbc7be" />
  <rect x="8.4375" y="1.8750" width="0.9375" height="0.9375" fill="#fbc7be" />
  <rect x="9.3750" y="1.8750" width="0.9375" height="0.9375" fill="#fbc7be" />
  <rect x="10.3125" y="1.8750" width="0.9375" height="0.9375" fill="#fbc7be" />
  <rect x="11.2500" y="1.8750" width="0.9375" height="0.9375" fill="#fbc7be" />
  <rect x="12.1875" y="1.8750" width="0.9375" height="0.9375" fill="#fbc7be" />
  <rect x="13.1250" y="1.8750" width="0.9375" height="0.9375" fill="#fbc7be" />
  <rect x="14.0625" y="1.8750" width="0.9375" height="0.9375" fill="#fce0dc" />
  <rect x="15.0000" y="1.8750" width="0.9375" height="0.9375" fill="#421321" />
  <rect x="0.0000" y="2.8125" width="0.9375" height="0.9375" fill="#421321" />
  <rect x="0.9375" y="2.8125" width="0.9375" height="0.9375" fill="#fcddd7" />
  <rect x="1.8750" y="2.8125" width="0.9375" height="0.9375" fill="#fbc3b9" />
  <rect x="2.8125" y="2.8125" width="0.9375" height="0.9375" fill="#fbc2b9" />
  <rect x="3.7500" y="2.8125" width="0.9375" height="0.9375" fill="#fbc3b9" />
  <rect x="4.6875" y="2.8125" width="0.9375" height="0.9375" fill="#fac3b9" />
  <rect x="5.6250" y="2.8125" width="0.9375" height="0.9375" fill="#fac3b8" />
  <rect x="6.5625" y="2.8125" width="0.9375" height="0.9375" fill="#fac3b9" />
  <rect x="7.5000" y="2.8125" width="0.9375" height="0.9375" fill="#fac2b9" />
  <rect x="8.4375" y="2.8125" width="0.9375" height="0.9375" fill="#fbc3b9" />
  <rect x="9.3750" y="2.8125" width="0.9375" height="0.9375" fill="#fbc3b9" />
  <rect x="10.3125" y="2.8125" width="0.9375" height="0.9375" fill="#fbc2b9" />
  <rect x="11.2500" y="2.8125" width="0.9375" height="0.9375" fill="#fbc2b9" />
  <rect x="12.1875" y="2.8125" width="0.9375" height="0.9375" fill="#fbc3b9" />
  <rect x="13.1250" y="2.8125" width="0.9375" height="0.9375" fill="#fbc3b8" />
  <rect x="14.0625" y="2.8125" width="0.9375" height="0.9375" fill="#fcddd7" />
  <rect x="15.0000" y="2.8125" width="0.9375" height="0.9375" fill="#421321" />
  <rect x="0.0000" y="3.7500" width="0.9375" height="0.9375" fill="#421321" />
  <rect x="0.9375" y="3.7500" width="0.9375" height="0.9375" fill="#fcd8d2" />
  <rect x="1.8750" y="3.7500" width="0.9375" height="0.9375" fill="#fbbcb1" />
  <rect x="2.8125" y="3.7500" width="0.9375" height="0.9375" fill="#b38882" />
  <rect x="3.7500" y="3.7500" width="0.9375" height="0.9375" fill="#525565" />
  <rect x="4.6875" y="3.7500" width="0.9375" height="0.9375" fill="#525565" />
  <rect x="5.6250" y="3.7500" width="0.9375" height="0.9375" fill="#525565" />
  <rect x="6.5625" y="3.7500" width="0.9375" height="0.9375" fill="#8c6f6e" />
  <rect x="7.5000" y="3.7500" width="0.9375" height="0.9375" fill="#fabcb2" />
  <rect x="8.4375" y="3.7500" width="0.9375" height="0.9375" fill="#8b6f6e" />
  <rect x="9.3750" y="3.7500" width="0.9375" height="0.9375" fill="#525565" />
  <rect x="10.3125" y="3.7500" width="0.9375" height="0.9375" fill="#525565" />
  <rect x="11.2500" y="3.7500" width="0.9375" height="0.9375" fill="#525565" />
  <rect x="12.1875" y="3.7500" width="0.9375" height="0.9375" fill="#8c706e" />
  <rect x="13.1250" y="3.7500" width="0.9375" height="0.9375" fill="#fbbcb2" />
  <rect x="14.0625" y="3.7500" width="0.9375" height="0.9375" fill="#fcd8d2" />
  <rect x="15.0000" y="3.7500" width="0.9375" height="0.9375" fill="#421321" />
  <rect x="0.0000" y="4.6875" width="0.9375" height="0.9375" fill="#421321" />
  <rect x="0.9375" y="4.6875" width="0.9375" height="0.9375" fill="#fcd3cc" />
  <rect x="1.8750" y="4.6875" width="0.9375" height="0.9375" fill="#fab5a9" />
  <rect x="2.8125" y="4.6875" width="0.9375" height="0.9375" fill="#525565" />
  <rect x="3.7500" y="4.6875" width="0.9375" height="0.9375" fill="#fefefe" />
  <rect x="4.6875" y="4.6875" width="0.9375" height="0.9375" fill="#fefefe" />
  <rect x="5.6250" y="4.6875" width="0.9375" height="0.9375" fill="#fefefe" />
  <rect x="6.5625" y="4.6875" width="0.9375" height="0.9375" fill="#525565" />
  <rect x="7.5000" y="4.6875" width="0.9375" height="0.9375" fill="#8b6c6a" />
  <rect x="8.4375" y="4.6875" width="0.9375" height="0.9375" fill="#525565" />
  <rect x="9.3750" y="4.6875" width="0.9375" height="0.9375" fill="#fefefe" />
  <rect x="10.3125" y="4.6875" width="0.9375" height="0.9375" fill="#fefefe" />
  <rect x="11.2500" y="4.6875" width="0.9375" height="0.9375" fill="#fefefe" />
  <rect x="12.1875" y="4.6875" width="0.9375" height="0.9375" fill="#525565" />
  <rect x="13.1250" y="4.6875" width="0.9375" height="0.9375" fill="#fab5a9" />
  <rect x="14.0625" y="4.6875" width="0.9375" height="0.9375" fill="#fcd3cc" />
  <rect x="15.0000" y="4.6875" width="0.9375" height="0.9375" fill="#421321" />
  <rect x="0.0000" y="5.6250" width="0.9375" height="0.9375" fill="#421321" />
  <rect x="0.9375" y="5.6250" width="0.9375" height="0.9375" fill="#fbcdc5" />
  <rect x="1.8750" y="5.6250" width="0.9375" height="0.9375" fill="#f9aea0" />
  <rect x="2.8125" y="5.6250" width="0.9375" height="0.9375" fill="#b27d76" />
  <rect x="3.7500" y="5.6250" width="0.9375" height="0.9375" fill="#525565" />
  <rect x="4.6875" y="5.6250" width="0.9375" height="0.9375" fill="#fcfcfc" />
  <rect x="5.6250" y="5.6250" width="0.9375" height="0.9375" fill="#fcfcfc" />
  <rect x="6.5625" y="5.6250" width="0.9375" height="0.9375" fill="#fcfcfc" />
  <rect x="7.5000" y="5.6250" width="0.9375" height="0.9375" fill="#525565" />
  <rect x="8.4375" y="5.6250" width="0.9375" height="0.9375" fill="#fcfcfc" />
  <rect x="9.3750" y="5.6250" width="0.9375" height="0.9375" fill="#fcfcfc" />
  <rect x="10.3125" y="5.6250" width="0.9375" height="0.9375" fill="#fcfcfc" />
  <rect x="11.2500" y="5.6250" width="0.9375" height="0.9375" fill="#525565" />
  <rect x="12.1875" y="5.6250" width="0.9375" height="0.9375" fill="#8b6866" />
  <rect x="13.1250" y="5.6250" width="0.9375" height="0.9375" fill="#faada0" />
  <rect x="14.0625" y="5.6250" width="0.9375" height="0.9375" fill="#fbcdc5" />
  <rect x="15.0000" y="5.6250" width="0.9375" height="0.9375" fill="#421321" />
  <rect x="0.0000" y="6.5625" width="0.9375" height="0.9375" fill="#421321" />
  <rect x="0.9375" y="6.5625" width="0.9375" height="0.9375" fill="#fbcdc5" />
  <rect x="1.8750" y="6.5625" width="0.9375" height="0.9375" fill="#f9a899" />
  <rect x="2.8125" y="6.5625" width="0.9375" height="0.9375" fill="#faa799" />
  <rect x="3.7500" y="6.5625" width="0.9375" height="0.9375" fill="#b27971" />
  <rect x="4.6875" y="6.5625" width="0.9375" height="0.9375" fill="#525565" />
  <rect x="5.6250" y="6.5625" width="0.9375" height="0.9375" fill="#f9f9f9" />
  <rect x="6.5625" y="6.5625" width="0.9375" height="0.9375" fill="#f9f9f9" />
  <rect x="7.5000" y="6.5625" width="0.9375" height="0.9375" fill="#f9f9f9" />
  <rect x="8.4375" y="6.5625" width="0.9375" height="0.9375" fill="#f9f9f9" />
  <rect x="9.3750" y="6.5625" width="0.9375" height="0.9375" fill="#f9f9f9" />
  <rect x="10.3125" y="6.5625" width="0.9375" height="0.9375" fill="#525565" />
  <rect x="11.2500" y="6.5625" width="0.9375" height="0.9375" fill="#8b6563" />
  <rect x="12.1875" y="6.5625" width="0.9375" height="0.9375" fill="#f9a799" />
  <rect x="13.1250" y="6.5625" width="0.9375" height="0.9375" fill="#f9a799" />
  <rect x="14.0625" y="6.5625" width="0.9375" height="0.9375" fill="#fbcdc5" />
  <rect x="15.0000" y="6.5625" width="0.9375" height="0.9375" fill="#421321" />
  <rect x="0.0000" y="7.5000" width="0.9375" height="0.9375" fill="#421321" />
  <rect x="0.9375" y="7.5000" width="0.9375" height="0.9375" fill="#e68876" />
  <rect x="1.8750" y="7.5000" width="0.9375" height="0.9375" fill="#d12201" />
  <rect x="2.8125" y="7.5000" width="0.9375" height="0.9375" fill="#d12201" />
  <rect x="3.7500" y="7.5000" width="0.9375" height="0.9375" fill="#d12201" />
  <rect x="4.6875" y="7.5000" width="0.9375" height="0.9375" fill="#962827" />
  <rect x="5.6250" y="7.5000" width="0.9375" height="0.9375" fill="#525565" />
  <rect x="6.5625" y="7.5000" width="0.9375" height="0.9375" fill="#e8e8e8" />
  <rect x="7.5000" y="7.5000" width="0.9375" height="0.9375" fill="#e8e8e8" />
  <rect x="8.4375" y="7.5000" width="0.9375" height="0.9375" fill="#e8e8e8" />
  <rect x="9.3750" y="7.5000" width="0.9375" height="0.9375" fill="#525565" />
  <rect x="10.3125" y="7.5000" width="0.9375" height="0.9375" fill="#78271c" />
  <rect x="11.2500" y="7.5000" width="0.9375" height="0.9375" fill="#d12201" />
  <rect x="12.1875" y="7.5000" width="0.9375" height="0.9375" fill="#d12201" />
  <rect x="13.1250" y="7.5000" width="0.9375" height="0.9375" fill="#d12201" />
  <rect x="14.0625" y="7.5000" width="0.9375" height="0.9375" fill="#e68876" />
  <rect x="15.0000" y="7.5000" width="0.9375" height="0.9375" fill="#421321" />
  <rect x="0.0000" y="8.4375" width="0.9375" height="0.9375" fill="#421321" />
  <rect x="0.9375" y="8.4375" width="0.9375" height="0.9375" fill="#e68876" />
  <rect x="1.8750" y="8.4375" width="0.9375" height="0.9375" fill="#d32f0a" />
  <rect x="2.8125" y="8.4375" width="0.9375" height="0.9375" fill="#d32e0a" />
  <rect x="3.7500" y="8.4375" width="0.9375" height="0.9375" fill="#982d28" />
  <rect x="4.6875" y="8.4375" width="0.9375" height="0.9375" fill="#525565" />
  <rect x="5.6250" y="8.4375" width="0.9375" height="0.9375" fill="#e1e1e1" />
  <rect x="6.5625" y="8.4375" width="0.9375" height="0.9375" fill="#e1e1e1" />
  <rect x="7.5000" y="8.4375" width="0.9375" height="0.9375" fill="#e1e1e1" />
  <rect x="8.4375" y="8.4375" width="0.9375" height="0.9375" fill="#e1e1e1" />
  <rect x="9.3750" y="8.4375" width="0.9375" height="0.9375" fill="#e1e1e1" />
  <rect x="10.3125" y="8.4375" width="0.9375" height="0.9375" fill="#525565" />
  <rect x="11.2500" y="8.4375" width="0.9375" height="0.9375" fill="#792d20" />
  <rect x="12.1875" y="8.4375" width="0.9375" height="0.9375" fill="#d32e09" />
  <rect x="13.1250" y="8.4375" width="0.9375" height="0.9375" fill="#d32f09" />
  <rect x="14.0625" y="8.4375" width="0.9375" height="0.9375" fill="#e68876" />
  <rect x="15.0000" y="8.4375" width="0.9375" height="0.9375" fill="#421321" />
  <rect x="0.0000" y="9.3750" width="0.9375" height="0.9375" fill="#421321" />
  <rect x="0.9375" y="9.3750" width="0.9375" height="0.9375" fill="#e68876" />
  <rect x="1.8750" y="9.3750" width="0.9375" height="0.9375" fill="#d64015" />
  <rect x="2.8125" y="9.3750" width="0.9375" height="0.9375" fill="#9a3729" />
  <rect x="3.7500" y="9.3750" width="0.9375" height="0.9375" fill="#525565" />
  <rect x="4.6875" y="9.3750" width="0.9375" height="0.9375" fill="#dbdbdb" />
  <rect x="5.6250" y="9.3750" width="0.9375" height="0.9375" fill="#dbdbdb" />
  <rect x="6.5625" y="9.3750" width="0.9375" height="0.9375" fill="#dbdbdb" />
  <rect x="7.5000" y="9.3750" width="0.9375" height="0.9375" fill="#525565" />
  <rect x="8.4375" y="9.3750" width="0.9375" height="0.9375" fill="#dbdbdb" />
  <rect x="9.3750" y="9.3750" width="0.9375" height="0.9375" fill="#dbdbdb" />
  <rect x="10.3125" y="9.3750" width="0.9375" height="0.9375" fill="#dbdbdb" />
  <rect x="11.2500" y="9.3750" width="0.9375" height="0.9375" fill="#525565" />
  <rect x="12.1875" y="9.3750" width="0.9375" height="0.9375" fill="#7b3525" />
  <rect x="13.1250" y="9.3750" width="0.9375" height="0.9375" fill="#d64015" />
  <rect x="14.0625" y="9.3750" width="0.9375" height="0.9375" fill="#e68876" />
  <rect x="15.0000" y="9.3750" width="0.9375" height="0.9375" fill="#421321" />
  <rect x="0.0000" y="10.3125" width="0.9375" height="0.9375" fill="#421321" />
  <rect x="0.9375" y="10.3125" width="0.9375" height="0.9375" fill="#e7907c" />
  <rect x="1.8750" y="10.3125" width="0.9375" height="0.9375" fill="#da5624" />
  <rect x="2.8125" y="10.3125" width="0.9375" height="0.9375" fill="#525565" />
  <rect x="3.7500" y="10.3125" width="0.9375" height="0.9375" fill="#d6d6d6" />
  <rect x="4.6875" y="10.3125" width="0.9375" height="0.9375" fill="#d6d6d6" />
  <rect x="5.6250" y="10.3125" width="0.9375" height="0.9375" fill="#d6d6d6" />
  <rect x="6.5625" y="10.3125" width="0.9375" height="0.9375" fill="#525565" />
  <rect x="7.5000" y="10.3125" width="0.9375" height="0.9375" fill="#7c402c" />
  <rect x="8.4375" y="10.3125" width="0.9375" height="0.9375" fill="#525565" />
  <rect x="9.3750" y="10.3125" width="0.9375" height="0.9375" fill="#d6d6d6" />
  <rect x="10.3125" y="10.3125" width="0.9375" height="0.9375" fill="#d6d6d6" />
  <rect x="11.2500" y="10.3125" width="0.9375" height="0.9375" fill="#d6d6d6" />
  <rect x="12.1875" y="10.3125" width="0.9375" height="0.9375" fill="#525565" />
  <rect x="13.1250" y="10.3125" width="0.9375" height="0.9375" fill="#da5624" />
  <rect x="14.0625" y="10.3125" width="0.9375" height="0.9375" fill="#e7907c" />
  <rect x="15.0000" y="10.3125" width="0.9375" height="0.9375" fill="#421321" />
  <rect x="0.0000" y="11.2500" width="0.9375" height="0.9375" fill="#421321" />
  <rect x="0.9375" y="11.2500" width="0.9375" height="0.9375" fill="#eaa187" />
  <rect x="1.8750" y="11.2500" width="0.9375" height="0.9375" fill="#de6c32" />
  <rect x="2.8125" y="11.2500" width="0.9375" height="0.9375" fill="#9f5233" />
  <rect x="3.7500" y="11.2500" width="0.9375" height="0.9375" fill="#525565" />
  <rect x="4.6875" y="11.2500" width="0.9375" height="0.9375" fill="#525565" />
  <rect x="5.6250" y="11.2500" width="0.9375" height="0.9375" fill="#525565" />
  <rect x="6.5625" y="11.2500" width="0.9375" height="0.9375" fill="#7e4a33" />
  <rect x="7.5000" y="11.2500" width="0.9375" height="0.9375" fill="#de6c32" />
  <rect x="8.4375" y="11.2500" width="0.9375" height="0.9375" fill="#7e4933" />
  <rect x="9.3750" y="11.2500" width="0.9375" height="0.9375" fill="#525565" />
  <rect x="10.3125" y="11.2500" width="0.9375" height="0.9375" fill="#525565" />
  <rect x="11.2500" y="11.2500" width="0.9375" height="0.9375" fill="#525565" />
  <rect x="12.1875" y="11.2500" width="0.9375" height="0.9375" fill="#7e4a33" />
  <rect x="13.1250" y="11.2500" width="0.9375" height="0.9375" fill="#de6b32" />
  <rect x="14.0625" y="11.2500" width="0.9375" height="0.9375" fill="#eaa187" />
  <rect x="15.0000" y="11.2500" width="0.9375" height="0.9375" fill="#421321" />
  <rect x="0.0000" y="12.1875" width="0.9375" height="0.9375" fill="#421321" />
  <rect x="0.9375" y="12.1875" width="0.9375" height="0.9375" fill="#edb394" />
  <rect x="1.8750" y="12.1875" width="0.9375" height="0.9375" fill="#e18141" />
  <rect x="2.8125" y="12.1875" width="0.9375" height="0.9375" fill="#e28141" />
  <rect x="3.7500" y="12.1875" width="0.9375" height="0.9375" fill="#e18140" />
  <rect x="4.6875" y="12.1875" width="0.9375" height="0.9375" fill="#e18140" />
  <rect x="5.6250" y="12.1875" width="0.9375" height="0.9375" fill="#e28040" />
  <rect x="6.5625" y="12.1875" width="0.9375" height="0.9375" fill="#e18141" />
  <rect x="7.5000" y="12.1875" width="0.9375" height="0.9375" fill="#e18140" />
  <rect x="8.4375" y="12.1875" width="0.9375" height="0.9375" fill="#e28140" />
  <rect x="9.3750" y="12.1875" width="0.9375" height="0.9375" fill="#e28041" />
  <rect x="10.3125" y="12.1875" width="0.9375" height="0.9375" fill="#e28041" />
  <rect x="11.2500" y="12.1875" width="0.9375" height="0.9375" fill="#e18141" />
  <rect x="12.1875" y="12.1875" width="0.9375" height="0.9375" fill="#e28141" />
  <rect x="13.1250" y="12.1875" width="0.9375" height="0.9375" fill="#e28140" />
  <rect x="14.0625" y="12.1875" width="0.9375" height="0.9375" fill="#edb394" />
  <rect x="15.0000" y="12.1875" width="0.9375" height="0.9375" fill="#421321" />
  <rect x="0.0000" y="13.1250" width="0.9375" height="0.9375" fill="#421321" />
  <rect x="0.9375" y="13.1250" width="0.9375" height="0.9375" fill="#f2cba3" />
  <rect x="1.8750" y="13.1250" width="0.9375" height="0.9375" fill="#e4924c" />
  <rect x="2.8125" y="13.1250" width="0.9375" height="0.9375" fill="#e5934d" />
  <rect x="3.7500" y="13.1250" width="0.9375" height="0.9375" fill="#e4924c" />
  <rect x="4.6875" y="13.1250" width="0.9375" height="0.9375" fill="#e5934d" />
  <rect x="5.6250" y="13.1250" width="0.9375" height="0.9375" fill="#e4924d" />
  <rect x="6.5625" y="13.1250" width="0.9375" height="0.9375" fill="#e4924d" />
  <rect x="7.5000" y="13.1250" width="0.9375" height="0.9375" fill="#e5924d" />
  <rect x="8.4375" y="13.1250" width="0.9375" height="0.9375" fill="#e4924d" />
  <rect x="9.3750" y="13.1250" width="0.9375" height="0.9375" fill="#e5924d" />
  <rect x="10.3125" y="13.1250" width="0.9375" height="0.9375" fill="#e5924d" />
  <rect x="11.2500" y="13.1250" width="0.9375" height="0.9375" fill="#e5934d" />
  <rect x="12.1875" y="13.1250" width="0.9375" height="0.9375" fill="#e4934c" />
  <rect x="13.1250" y="13.1250" width="0.9375" height="0.9375" fill="#e5934d" />
  <rect x="14.0625" y="13.1250" width="0.9375" height="0.9375" fill="#f2cba3" />
  <rect x="15.0000" y="13.1250" width="0.9375" height="0.9375" fill="#421321" />
  <rect x="0.0000" y="14.0625" width="0.9375" height="0.9375" fill="#4f2837" />
  <rect x="0.9375" y="14.0625" width="0.9375" height="0.9375" fill="#c0a893" />
  <rect x="1.8750" y="14.0625" width="0.9375" height="0.9375" fill="#f6e3b1" />
  <rect x="2.8125" y="14.0625" width="0.9375" height="0.9375" fill="#f6e4aa" />
  <rect x="3.7500" y="14.0625" width="0.9375" height="0.9375" fill="#f7e59f" />
  <rect x="4.6875" y="14.0625" width="0.9375" height="0.9375" fill="#f7e792" />
  <rect x="5.6250" y="14.0625" width="0.9375" height="0.9375" fill="#f8e984" />
  <rect x="6.5625" y="14.0625" width="0.9375" height="0.9375" fill="#f9ec6b" />
  <rect x="7.5000" y="14.0625" width="0.9375" height="0.9375" fill="#f9eb74" />
  <rect x="8.4375" y="14.0625" width="0.9375" height="0.9375" fill="#f8ea7f" />
  <rect x="9.3750" y="14.0625" width="0.9375" height="0.9375" fill="#f8e88e" />
  <rect x="10.3125" y="14.0625" width="0.9375" height="0.9375" fill="#f7e69d" />
  <rect x="11.2500" y="14.0625" width="0.9375" height="0.9375" fill="#f6e4a9" />
  <rect x="12.1875" y="14.0625" width="0.9375" height="0.9375" fill="#f6e3b1" />
  <rect x="13.1250" y="14.0625" width="0.9375" height="0.9375" fill="#f6e3b1" />
  <rect x="14.0625" y="14.0625" width="0.9375" height="0.9375" fill="#c0a893" />
  <rect x="15.0000" y="14.0625" width="0.9375" height="0.9375" fill="#4f2837" />
  <rect x="0.9375" y="15.0000" width="0.9375" height="0.9375" fill="#4e2534" />
  <rect x="1.8750" y="15.0000" width="0.9375" height="0.9375" fill="#421321" />
  <rect x="2.8125" y="15.0000" width="0.9375" height="0.9375" fill="#421321" />
  <rect x="3.7500" y="15.0000" width="0.9375" height="0.9375" fill="#421321" />
  <rect x="4.6875" y="15.0000" width="0.9375" height="0.9375" fill="#421321" />
  <rect x="5.6250" y="15.0000" width="0.9375" height="0.9375" fill="#421321" />
  <rect x="6.5625" y="15.0000" width="0.9375" height="0.9375" fill="#421321" />
  <rect x="7.5000" y="15.0000" width="0.9375" height="0.9375" fill="#421321" />
  <rect x="8.4375" y="15.0000" width="0.9375" height="0.9375" fill="#421321" />
  <rect x="9.3750" y="15.0000" width="0.9375" height="0.9375" fill="#421321" />
  <rect x="10.3125" y="15.0000" width="0.9375" height="0.9375" fill="#421321" />
  <rect x="11.2500" y="15.0000" width="0.9375" height="0.9375" fill="#421321" />
  <rect x="12.1875" y="15.0000" width="0.9375" height="0.9375" fill="#421321" />
  <rect x="13.1250" y="15.0000" width="0.9375" height="0.9375" fill="#421321" />
  <rect x="14.0625" y="15.0000" width="0.9375" height="0.9375" fill="#4e2534" />
</svg>